<svg width="151" height="192" viewBox="0 0 151 192" fill="none" xmlns="http://www.w3.org/2000/svg">
<path d="M148.144 61.6547L88.5553 2.33056C87.056 0.83797 85.0601 0 82.9445 0H8.4663C4.04802 0 0.5 3.58173 0.5 8V184C0.5 188.418 4.08172 192 8.5 192H142.5C146.918 192 150.5 188.418 150.5 184V67.3242C150.5 65.1963 149.652 63.156 148.144 61.6547Z" fill="#9747FF"/>
<path fill-rule="evenodd" clip-rule="evenodd" d="M67.2519 72.2424C70.8178 68.6849 76.9148 71.2045 76.9148 76.2355V115.765C76.9148 120.796 70.8178 123.315 67.2519 119.758L54.7589 107.294H51.4431C48.317 107.294 45.7827 104.766 45.7827 101.647V90.3531C45.7827 87.2343 48.317 84.7061 51.4431 84.7061H54.7589L67.2519 72.2424ZM71.2544 76.2355L57.9324 89.5261C57.4016 90.0556 56.6818 90.3531 55.9312 90.3531H51.4431V101.647H55.9312C56.6818 101.647 57.4016 101.945 57.9324 102.474L71.2544 115.765V76.2355ZM90.0947 76.0345C91.2 74.9319 92.992 74.9319 94.0972 76.0345C105.15 87.0611 105.15 104.939 94.0972 115.965C92.992 117.068 91.2 117.068 90.0947 115.965C88.9895 114.863 88.9895 113.075 90.0947 111.972C98.9368 103.151 98.9368 88.8488 90.0947 80.0276C88.9895 78.9249 88.9895 77.1372 90.0947 76.0345ZM82.0896 84.0208C83.1948 82.9182 84.9868 82.9182 86.092 84.0208C92.7236 90.6368 92.7236 101.363 86.092 107.979C84.9868 109.082 83.1948 109.082 82.0896 107.979C80.9843 106.877 80.9843 105.089 82.0896 103.986C86.5106 99.5756 86.5106 92.4245 82.0896 88.0139C80.9843 86.9113 80.9843 85.1235 82.0896 84.0208Z" fill="white"/>
</svg>
