<svg width="48" height="48" viewBox="0 0 48 48" fill="none" xmlns="http://www.w3.org/2000/svg">
<path fill-rule="evenodd" clip-rule="evenodd" d="M8.12379 22H16.0353C16.1897 17.6526 16.8435 13.689 17.86 10.6396C18.0528 10.0611 18.2627 9.5034 18.4904 8.97389C12.9692 10.9989 8.87444 15.9802 8.12379 22ZM24 4C12.9543 4 4 12.9543 4 24C4 35.0457 12.9543 44 24 44C35.0457 44 44 35.0457 44 24C44 12.9543 35.0457 4 24 4ZM24 8C24 8 24.0117 8.00036 24.0306 8.00611C24.0529 8.0129 24.0969 8.02966 24.1629 8.07015C24.3011 8.15504 24.5091 8.32816 24.7646 8.65248C25.2851 9.31283 25.8412 10.3923 26.3453 11.9045C27.2055 14.4851 27.8091 18.0055 27.962 22H20.038C20.1909 18.0055 20.7945 14.4851 21.6547 11.9045C22.1588 10.3923 22.7149 9.31283 23.2354 8.65248C23.4909 8.32816 23.6989 8.15504 23.8371 8.07015C23.9031 8.02966 23.9471 8.0129 23.9694 8.00611C23.9901 7.9998 24 8 24 8ZM16.0353 26H8.12379C8.87445 32.0198 12.9692 37.0011 18.4904 39.0261C18.2627 38.4966 18.0528 37.9389 17.86 37.3604C16.8435 34.311 16.1897 30.3474 16.0353 26ZM31.9647 22C31.8103 17.6526 31.1565 13.689 30.14 10.6396C29.9472 10.0612 29.7373 9.5034 29.5096 8.97389C35.0308 10.9989 39.1256 15.9802 39.8762 22H31.9647ZM39.8762 26C39.1256 32.0198 35.0308 37.0011 29.5096 39.0261L39.8762 26ZM20.038 26C20.1909 29.9945 20.7945 33.5149 21.6547 36.0955C22.1588 37.6077 22.7149 38.6872 23.2354 39.3475C23.4909 39.6718 23.6989 39.845 23.8371 39.9299C23.9031 39.9703 23.9471 39.9871 23.9694 39.9939C25 39 28 26 28 26" fill="black"/>
</svg>
