<svg width="16" height="16" viewBox="0 0 16 16" fill="none" xmlns="http://www.w3.org/2000/svg">
<path fill-rule="evenodd" clip-rule="evenodd" d="M5.99967 2.66666C4.89511 2.66666 3.99967 3.56209 3.99967 4.66666C3.99967 5.77123 4.89511 6.66666 5.99967 6.66666C6.59402 6.66666 7.12781 6.40741 7.49414 5.99582C7.49757 5.99184 7.50107 5.98788 7.50461 5.98396C7.81285 5.6321 7.99967 5.1712 7.99967 4.66666C7.99967 4.16212 7.81284 3.70121 7.50459 3.34934C7.50106 3.34543 7.49758 3.34149 7.49416 3.33752C7.12783 2.92592 6.59403 2.66666 5.99967 2.66666ZM7.99974 1.9998C7.44262 1.58131 6.75011 1.33333 5.99967 1.33333C4.15873 1.33333 2.66634 2.82571 2.66634 4.66666C2.66634 6.50761 4.15873 8 5.99967 8C6.75011 8 7.44262 7.75201 7.99974 7.33352C8.55658 7.75161 9.24935 8 9.99968 8C11.8406 8 13.333 6.50761 13.333 4.66666C13.333 2.82571 11.8406 1.33333 9.99968 1.33333C9.24935 1.33333 8.55658 1.58171 7.99974 1.9998ZM8.88887 3.00311C9.17137 3.4927 9.33301 4.0608 9.33301 4.66666C9.33301 5.27252 9.17137 5.84063 8.88887 6.33021C9.20678 6.54303 9.58859 6.66666 9.99968 6.66666C11.1042 6.66666 11.9997 5.77123 11.9997 4.66666C11.9997 3.56209 11.1042 2.66666 9.99968 2.66666C9.58859 2.66666 9.20678 2.79029 8.88887 3.00311ZM5.99967 10C4.15873 10 2.66634 11.4924 2.66634 13.3333H9.33301C9.33301 11.4924 7.84062 10 5.99967 10ZM10.6663 13.3333H13.333C13.333 11.4924 11.8406 10 9.99968 10C9.7709 10 9.54777 10.023 9.33236 10.0667C10.1575 10.9084 10.6663 12.0615 10.6663 13.3333ZM7.99986 9.11584C7.39364 8.82782 6.71548 8.66666 5.99967 8.66666C3.42235 8.66666 1.33301 10.756 1.33301 13.3333V14C1.33301 14.3682 1.63148 14.6667 1.99967 14.6667H13.9997C14.3679 14.6667 14.6663 14.3682 14.6663 14V13.3333C14.6663 10.756 12.577 8.66666 9.99968 8.66666C9.28501 8.66666 8.60653 8.82774 7.99986 9.11584Z" fill="black"/>
</svg>
