<svg width="51" height="50" viewBox="0 0 51 50" fill="none" xmlns="http://www.w3.org/2000/svg">
<rect x="0.5" width="50" height="50" rx="6" fill="#9747FF"/>
<path fill-rule="evenodd" clip-rule="evenodd" d="M22.4822 14.5071C24.0571 12.9358 26.75 14.0486 26.75 16.2707V33.7295C26.75 35.9515 24.0571 37.0643 22.4822 35.4931L16.9645 29.9883H15.5C14.1193 29.9883 13 28.8717 13 27.4942V22.506C13 21.1285 14.1193 20.0118 15.5 20.0118H16.9645L22.4822 14.5071ZM24.25 16.2707L18.3661 22.1407C18.1317 22.3746 17.8138 22.506 17.4822 22.506H15.5V27.4942H17.4822C17.8138 27.4942 18.1317 27.6256 18.3661 27.8594L24.25 33.7295V16.2707ZM32.5711 16.1819C33.0593 15.6949 33.8507 15.6949 34.3389 16.1819C39.2205 21.052 39.2205 28.9479 34.3389 33.818C33.8507 34.305 33.0593 34.305 32.5711 33.818C32.083 33.331 32.083 32.5414 32.5711 32.0544C36.4764 28.1583 36.4764 21.8416 32.5711 17.9455C32.083 17.4585 32.083 16.6689 32.5711 16.1819ZM29.0355 19.7092C29.5237 19.2222 30.3151 19.2222 30.8033 19.7092C33.7322 22.6312 33.7322 27.3688 30.8033 30.2908C30.3151 30.7779 29.5237 30.7779 29.0355 30.2908C28.5474 29.8038 28.5474 29.0142 29.0355 28.5272C30.9881 26.5792 30.9881 23.4208 29.0355 21.4728C28.5474 20.9858 28.5474 20.1962 29.0355 19.7092Z" fill="white"/>
</svg>
