<svg width="144" height="88" viewBox="0 0 144 88" fill="none" xmlns="http://www.w3.org/2000/svg">
<path d="M131.479 44.7304L124.863 20.1431C124.313 18.0971 122.975 16.3542 121.14 15.2948L104.698 5.80189C100.872 3.59275 95.9845 4.90698 93.7754 8.73332L67.7754 53.7666C65.5662 57.593 66.8773 62.4857 70.7036 64.6948L102.747 83.1948C106.573 85.404 111.466 84.093 113.675 80.2666L130.682 50.809C131.744 48.969 132.031 46.782 131.479 44.7304Z" fill="#9747FF"/>
<g clip-path="url(#clip0_47_767)">
<path fill-rule="evenodd" clip-rule="evenodd" d="M116.513 44.5808C116.628 44.8663 116.606 45.189 116.452 45.4557L114.462 48.9017C114.455 48.9144 114.448 48.9269 114.441 48.9392L109.952 56.714C109.457 57.572 108.548 57.9415 107.682 57.9974C106.808 58.0537 105.852 57.8113 104.988 57.3121C104.123 56.8129 103.435 56.1064 103.047 55.3213C102.663 54.5438 102.528 53.572 103.024 52.714C103.519 51.8561 104.428 51.4865 105.293 51.4307C106.167 51.3743 107.123 51.6168 107.988 52.1159C108.605 52.4722 109.132 52.9341 109.524 53.4548L112.079 49.029L102.169 46.194L98.0595 53.3121C97.5642 54.17 96.6554 54.5396 95.7898 54.5954C94.9159 54.6518 93.96 54.4093 93.0954 53.9102C92.2309 53.411 91.543 52.7044 91.1548 51.9194C90.7704 51.1419 90.636 50.17 91.1313 49.3121C91.6267 48.4542 92.5355 48.0846 93.4011 48.0288C94.275 47.9724 95.2309 48.2149 96.0954 48.714C96.7125 49.0703 97.2396 49.5322 97.6319 50.0529L100.817 44.536C100.824 44.5233 100.831 44.5108 100.839 44.4985L102.827 41.0538C103.057 40.6564 103.527 40.4661 103.969 40.5923L115.861 43.9943C116.157 44.079 116.397 44.2953 116.513 44.5808ZM103.2 44.4087L113.11 47.2436L114.079 45.5649L104.169 42.7299L103.2 44.4087ZM96.3275 52.3121C96.3844 52.2135 96.4372 51.9835 96.2433 51.5912C96.053 51.2065 95.6658 50.7753 95.0954 50.4461C94.5251 50.1168 93.9581 49.997 93.5298 50.0246C93.0931 50.0528 92.9203 50.2135 92.8634 50.3121C92.8064 50.4107 92.7537 50.6407 92.9476 51.033C93.1379 51.4177 93.5251 51.8489 94.0954 52.1781C94.6658 52.5074 95.2328 52.6272 95.6611 52.5996C96.0978 52.5714 96.2705 52.4107 96.3275 52.3121ZM108.22 55.714C108.277 55.6154 108.33 55.3854 108.136 54.9932C107.945 54.6084 107.558 54.1773 106.988 53.848C106.417 53.5187 105.85 53.3989 105.422 53.4265C104.985 53.4547 104.813 53.6154 104.756 53.714C104.699 53.8127 104.646 54.0426 104.84 54.4349C105.03 54.8196 105.417 55.2508 105.988 55.58C106.558 55.9093 107.125 56.0291 107.553 56.0015C107.99 55.9733 108.163 55.8127 108.22 55.714Z" fill="white"/>
</g>
<path d="M96.4263 21.1276L78.4032 3.14233C76.9034 1.64567 74.8736 0.805115 72.7548 0.805115H53.7689C49.3507 0.805115 45.7754 4.38684 45.7754 8.80511V60.8051C45.7754 65.2234 49.3571 68.8051 53.7754 68.8051H90.7754C95.1937 68.8051 98.7754 65.2234 98.7754 60.8051V26.7904C98.7754 24.6658 97.9302 22.6284 96.4263 21.1276Z" fill="#38A169"/>
<path fill-rule="evenodd" clip-rule="evenodd" d="M67.7754 27.8051C67.7754 25.596 69.5663 23.8051 71.7754 23.8051C73.9845 23.8051 75.7754 25.596 75.7754 27.8051V33.8051C75.7754 36.0143 73.9845 37.8051 71.7754 37.8051C69.5663 37.8051 67.7754 36.0143 67.7754 33.8051V27.8051ZM71.7754 25.8051C70.6708 25.8051 69.7754 26.7005 69.7754 27.8051V33.8051C69.7754 34.9097 70.6708 35.8051 71.7754 35.8051C72.88 35.8051 73.7754 34.9097 73.7754 33.8051V27.8051C73.7754 26.7005 72.88 25.8051 71.7754 25.8051ZM64.7754 32.8051C65.3277 32.8051 65.7754 33.2528 65.7754 33.8051C65.7754 37.1188 68.4617 39.8051 71.7754 39.8051C75.0891 39.8051 77.7754 37.1188 77.7754 33.8051C77.7754 33.2528 78.2231 32.8051 78.7754 32.8051C79.3277 32.8051 79.7754 33.2528 79.7754 33.8051C79.7754 37.8847 76.7217 41.2511 72.7754 41.7432V43.8051H75.7754C76.3277 43.8051 76.7754 44.2528 76.7754 44.8051C76.7754 45.3574 76.3277 45.8051 75.7754 45.8051H67.7754C67.2231 45.8051 66.7754 45.3574 66.7754 44.8051C66.7754 44.2528 67.2231 43.8051 67.7754 43.8051H70.7754V41.7432C66.8291 41.2511 63.7754 37.8847 63.7754 33.8051C63.7754 33.2528 64.2231 32.8051 64.7754 32.8051Z" fill="white"/>
<path d="M54.3519 19.8846L29.7508 13.3205C27.7036 12.7742 25.5255 13.0612 23.6905 14.1206L7.2483 23.6135C3.42196 25.8227 2.11654 30.7122 4.32568 34.5385L30.3257 79.5718C32.5348 83.3982 37.4275 84.7092 41.2539 82.5L73.2968 64C77.1232 61.7909 78.4342 56.8982 76.225 53.0718L59.2177 23.6142C58.1554 21.7742 56.4047 20.4324 54.3519 19.8846Z" fill="#E53E3E"/>
<g clip-path="url(#clip1_47_767)">
<path fill-rule="evenodd" clip-rule="evenodd" d="M33.5446 37.9754C34.0057 36.2543 36.3176 35.9499 37.2085 37.493L44.2085 49.6174C45.0994 51.1605 43.6799 53.0104 41.9588 52.5492L35.9288 50.9335L34.9142 51.5193C33.9576 52.0716 32.7345 51.7438 32.1822 50.7873L30.1822 47.3232C29.6299 46.3666 29.9576 45.1434 30.9142 44.5911L31.9288 44.0053L33.5446 37.9754ZM35.4764 38.493L33.7535 44.9231C33.6848 45.1792 33.5172 45.3977 33.2876 45.5303L31.9142 46.3232L33.9142 49.7873L35.2876 48.9944C35.5172 48.8618 35.7902 48.8258 36.0464 48.8945L42.4764 50.6174L35.4764 38.493ZM41.2059 35.1029C41.3488 34.5695 41.8972 34.2529 42.4306 34.3958C47.7653 35.8253 50.9311 41.3086 49.5017 46.6433C49.3587 47.1767 48.8104 47.4933 48.2769 47.3504C47.7435 47.2074 47.4269 46.6591 47.5698 46.1256C48.7134 41.8579 46.1807 37.4712 41.913 36.3277C41.3795 36.1847 41.0629 35.6364 41.2059 35.1029ZM40.1706 38.9667C40.3135 38.4333 40.8619 38.1167 41.3953 38.2596C44.5961 39.1173 46.4956 42.4073 45.638 45.6081C45.495 46.1416 44.9467 46.4581 44.4132 46.3152C43.8797 46.1723 43.5632 45.6239 43.7061 45.0905C44.2779 42.9566 43.0115 40.7632 40.8777 40.1915C40.3442 40.0485 40.0276 39.5002 40.1706 38.9667Z" fill="white"/>
</g>
<defs>
<clipPath id="clip0_47_767">
<rect width="24" height="24" fill="white" transform="translate(98.8994 31.8576) rotate(30)"/>
</clipPath>
<clipPath id="clip1_47_767">
<rect width="24" height="24" fill="white" transform="translate(23.4502 39.6628) rotate(-30)"/>
</clipPath>
</defs>
</svg>
