<svg width="16" height="16" viewBox="0 0 16 16" fill="none" xmlns="http://www.w3.org/2000/svg">
<path fill-rule="evenodd" clip-rule="evenodd" d="M1.33301 4C1.33301 2.89543 2.22844 2 3.33301 2H12.6663C13.7709 2 14.6663 2.89543 14.6663 4C14.6663 4.87081 14.1098 5.61164 13.333 5.8862V12C13.333 13.1046 12.4376 14 11.333 14H4.66634C3.56177 14 2.66634 13.1046 2.66634 12L2.66634 5.8862C1.88955 5.61164 1.33301 4.87081 1.33301 4ZM3.99967 6V12C3.99967 12.3682 4.29815 12.6667 4.66634 12.6667H11.333C11.7012 12.6667 11.9997 12.3682 11.9997 12V6H3.99967ZM3.33301 3.33333C2.96482 3.33333 2.66634 3.63181 2.66634 4C2.66634 4.36819 2.96482 4.66667 3.33301 4.66667H12.6663C13.0345 4.66667 13.333 4.36819 13.333 4C13.333 3.63181 13.0345 3.33333 12.6663 3.33333H3.33301ZM5.99967 8C5.99967 7.63181 6.29815 7.33333 6.66634 7.33333H9.33301C9.7012 7.33333 9.99967 7.63181 9.99967 8C9.99967 8.36819 9.7012 8.66667 9.33301 8.66667H6.66634C6.29815 8.66667 5.99967 8.36819 5.99967 8Z" fill="black"/>
</svg>
