<svg width="19" height="46" viewBox="0 0 19 46" fill="none" xmlns="http://www.w3.org/2000/svg">
<path d="M8.16401 24.8352V38.0552C5.5935 35.2324 3.30578 34.2282 1.33402 24.8352C0.778323 22.188 1.01438 18.6237 1.33402 16.7599C1.98593 12.9585 2.15615 12.3315 4.30633 8.03333C6.02648 4.59481 8.39589 1.91173 9.36558 1C10.2299 1.78148 12.1738 3.87771 13.413 5.75401C15.0964 8.3029 15.9637 10.1607 16.5118 11.1593L13.6659 16.3691L17.5236 14.1549C17.629 14.6325 17.8525 15.8221 17.9031 16.7599C17.9663 17.9321 18.2193 21.7744 17.5236 24.8352C16.828 27.896 16.575 28.0914 15.3102 31.3475C14.0454 34.6037 11.8109 36.9047 10.6936 38.0552C10.7147 39.9221 10.7442 43.8121 10.6936 44.4373C10.6555 44.9087 10.4989 45 9.99297 45C9.58823 45 9.36558 44.611 9.36558 44.4373C9.42882 37.9033 9.51736 24.757 9.36558 24.4444C9.17586 24.0537 9.02509 24.1188 8.6067 24.1188C8.26781 24.1188 8.18509 24.6615 8.16401 24.8352Z" stroke="#38A169" stroke-linecap="round"/>
</svg>
