<svg width="18" height="18" viewBox="0 0 18 18" fill="none" xmlns="http://www.w3.org/2000/svg">
<path fill-rule="evenodd" clip-rule="evenodd" d="M1.71973 1.71967C2.01262 1.42678 2.4875 1.42678 2.78039 1.71967L5.06061 3.99989C6.23179 3.36225 7.57465 3 9.00039 3C12.6956 3 15.8215 5.42885 16.8726 8.77529C16.9185 8.92159 16.9185 9.07847 16.8726 9.22477C16.383 10.7834 15.4444 12.1414 14.209 13.1482L16.2804 15.2197C16.5733 15.5126 16.5733 15.9874 16.2804 16.2803C15.9875 16.5732 15.5126 16.5732 15.2197 16.2803L1.71973 2.78033C1.42684 2.48744 1.42684 2.01256 1.71973 1.71967ZM6.17739 5.11667L7.4762 6.41547C7.92278 6.15172 8.44402 6 9.00006 6C10.6569 6 12.0001 7.34315 12.0001 9C12.0001 9.55604 11.8483 10.0773 11.5846 10.5239L13.1416 12.0809C14.1518 11.2948 14.9323 10.2285 15.3665 9.00002C14.4397 6.37759 11.9384 4.5 9.00039 4.5C7.99168 4.5 7.03582 4.72083 6.17739 5.11667ZM10.4494 9.38865C10.4825 9.26476 10.5001 9.13451 10.5001 9C10.5001 8.17157 9.82849 7.5 9.00006 7.5C8.86555 7.5 8.7353 7.5176 8.61141 7.55069L10.4494 9.38865ZM3.46872 6.13033C3.79902 6.38029 3.86414 6.85068 3.61419 7.18097C3.19974 7.72863 2.86718 8.34101 2.63427 8.99998C3.56106 11.6224 6.06239 13.5 9.00041 13.5C9.43378 13.5 9.85694 13.4593 10.2665 13.3816C10.6734 13.3044 11.0659 13.5718 11.1431 13.9787C11.2203 14.3857 10.9529 14.7782 10.5459 14.8553C10.0447 14.9504 9.52802 15 9.00041 15C5.30521 15 2.17926 12.5712 1.12821 9.22471C1.08226 9.07841 1.08226 8.92154 1.12821 8.77523C1.41465 7.86327 1.85489 7.02001 2.41808 6.2758C2.66804 5.94551 3.13843 5.88038 3.46872 6.13033Z" fill="#3B454E"/>
</svg>
